<svg xmlns="http://www.w3.org/2000/svg" width="293.468" height="79.227" viewBox="0 0 293.468 79.227"><defs><style>.a{fill:#fff;}.b{fill:none;stroke:#fff;stroke-linecap:round;stroke-linejoin:round;stroke-width:5px;}</style></defs><g transform="translate(-154.488 -28)"><g transform="translate(157 28)"><path class="a" d="M3.791,0H34.246a0,0,0,0,1,0,0V0a3.791,3.791,0,0,1-3.791,3.791H0a0,0,0,0,1,0,0v0A3.791,3.791,0,0,1,3.791,0Z" transform="translate(32.656)"/><path class="b" d="M102.5,297.965h33.553A33.555,33.555,0,1,1,102.5,264.412h30.066Z" transform="translate(-68.949 -254.802)"/></g><path class="a" d="M9.594,15.12v3.12H15.7a5.019,5.019,0,0,1-5.174,3.64c-3.562,0-5.59-2.6-5.59-5.9,0-3.51,2.288-5.954,5.642-5.954a5.147,5.147,0,0,1,4.836,2.808H19.4a8.828,8.828,0,0,0-8.788-6.344A9.147,9.147,0,0,0,1.2,15.926a9.007,9.007,0,0,0,9.048,9.386c3.068,0,5.3-1.43,6.136-3.38V25h3.172V15.12ZM37.206,6.8H33.02l-4.108,8.034L24.8,6.8H20.618l6.448,12.22L27.04,25h3.744V18.994Zm16.172,0-4.654,6.994L44.044,6.8H39.78V25H43.5V11.948l5.044,7.67h.338l5.07-7.67V25h3.718V6.8Zm19.942,0v7.618l.338,5.122L65.728,6.8H61.464V25h3.718V17.382l-.338-5.122L72.748,25h4.29V6.8ZM91.988,1.34,89.778-.87,85.566,3.342,87.178,4.98Zm2,23.66h3.952L91.13,6.8H86.424L79.612,25h3.926l1.56-4.29h7.358Zm-7.618-7.826,2.392-6.6,2.392,6.6Zm17.94,4.29,8.866-11.128L113.152,6.8H100.074v3.536H108.5l-8.84,11.128V25H113.23V21.464ZM116.168,25h3.718V6.8h-3.718Zm18.9-18.2V17.434c0,3.172-1.56,4.342-3.744,4.342s-3.744-1.17-3.744-4.342V6.8h-3.77V17.642c0,5.122,3.224,7.67,7.514,7.67s7.514-2.548,7.514-7.67V6.8Zm21.06,0-4.654,6.994L146.8,6.8h-4.264V25h3.718V11.948l5.044,7.67h.338l5.07-7.67V25h3.718V6.8ZM11.986,32.69,10.01,30.714,7.774,33.158,5.512,30.714,3.562,32.69,7.774,36.9ZM5.642,53.464l8.866-11.128L14.482,38.8H1.4v3.536H9.828L.988,53.464V57H14.56V53.464ZM17.5,57h3.718V38.8H17.5ZM31.72,38.8H25.142V57H31.72a9.1,9.1,0,1,0,0-18.2Zm0,14.664H28.86V42.336h2.86a5.564,5.564,0,1,1,0,11.128Zm16.2,0V38.8H44.2V57H55.718V53.464ZM66.456,38.488a9.412,9.412,0,1,0,9.49,9.412A9.26,9.26,0,0,0,66.456,38.488Zm0,3.536a5.631,5.631,0,0,1,5.72,5.876,5.722,5.722,0,1,1-11.44,0A5.631,5.631,0,0,1,66.456,42.024ZM87.828,57.312a8.856,8.856,0,0,0,8.788-6.552H92.638A5.1,5.1,0,0,1,87.8,53.776,5.525,5.525,0,0,1,82.16,47.9,5.525,5.525,0,0,1,87.8,42.024a5.1,5.1,0,0,1,4.836,3.016h3.978a8.856,8.856,0,0,0-8.788-6.552A9.171,9.171,0,0,0,78.416,47.9,9.171,9.171,0,0,0,87.828,57.312ZM111.384,38.8v7.124H103.3V38.8H99.58V57H103.3V49.46h8.086V57H115.1V38.8Zm16.354-.312a9.412,9.412,0,1,0,9.49,9.412A9.26,9.26,0,0,0,127.738,38.488Zm0,3.536a5.631,5.631,0,0,1,5.72,5.876,5.722,5.722,0,1,1-11.44,0A5.631,5.631,0,0,1,127.738,42.024ZM150.8,38.8l-4.42,13.806L142.012,38.8h-3.926L144.04,57h4.68l6.006-18.2ZM157.43,57h3.718V38.8H157.43Zm16.38.312A8.856,8.856,0,0,0,182.6,50.76H178.62a5.1,5.1,0,0,1-4.836,3.016,5.525,5.525,0,0,1-5.642-5.876,5.525,5.525,0,0,1,5.642-5.876,5.1,5.1,0,0,1,4.836,3.016H182.6a8.856,8.856,0,0,0-8.788-6.552A9.171,9.171,0,0,0,164.4,47.9,9.171,9.171,0,0,0,173.81,57.312Zm23.972-14.976V38.8h-12.22V57h12.22V53.464h-8.5V49.538h7.8V46h-7.8V42.336Z" transform="translate(250.174 37.377)"/></g></svg>